<svg id="svg" version="1.1" xmlns="http://www.w3.org/2000/svg" xmlns:xlink="http://www.w3.org/1999/xlink" width="400" height="225" viewBox="0, 0, 400,225"><g id="svgg"><path id="path0" d="M16.250 85.605 C 14.328 86.031,14.124 86.227,12.632 89.089 C 10.454 93.266,8.206 99.416,6.436 106.042 C 6.084 107.359,5.483 109.516,5.100 110.833 C 2.554 119.595,3.158 135.437,6.132 137.905 C 7.526 139.062,15.765 134.432,20.880 129.616 L 22.907 127.708 38.190 127.708 C 46.596 127.708,58.977 127.771,65.704 127.847 L 77.934 127.985 80.477 130.255 C 84.025 133.422,88.139 136.092,91.644 137.502 C 94.683 138.726,95.095 138.460,96.125 134.611 C 97.091 131.001,97.188 130.013,97.174 123.958 C 97.156 116.047,97.116 115.811,93.896 104.583 C 91.949 97.792,90.613 94.140,88.508 89.856 C 86.459 85.685,86.227 85.551,81.042 85.532 C 77.268 85.519,77.048 85.595,76.518 87.110 C 75.940 88.759,78.235 88.671,42.892 88.403 L 24.638 88.265 24.295 87.176 C 24.106 86.577,23.798 85.959,23.610 85.804 C 23.221 85.481,17.508 85.326,16.250 85.605 M39.369 101.782 C 47.342 105.972,44.150 118.391,35.232 117.875 C 29.992 117.572,26.294 112.038,27.895 106.894 C 29.479 101.805,34.855 99.410,39.369 101.782 M68.308 101.670 C 71.754 103.258,73.884 107.322,73.145 110.900 C 71.377 119.457,60.326 120.458,57.287 112.337 C 54.702 105.425,61.720 98.633,68.308 101.670 " stroke="none" fill="#1ce484" fill-rule="evenodd"></path><path id="path1" d="M125.313 87.910 C 117.379 88.433,111.788 92.386,109.242 99.271 C 108.601 101.005,108.540 121.087,109.168 123.548 C 111.066 130.980,117.778 135.466,126.965 135.443 C 132.708 135.429,137.444 133.384,140.956 129.403 C 141.647 128.619,143.958 125.326,143.958 125.124 C 143.958 125.095,143.466 124.853,142.865 124.587 C 139.874 123.263,137.021 121.961,135.505 121.229 C 133.425 120.225,133.552 120.214,132.874 121.445 C 130.496 125.756,121.851 125.179,120.626 120.627 C 120.470 120.049,120.416 116.990,120.458 111.188 L 120.521 102.604 121.028 101.718 C 123.415 97.551,130.636 97.822,133.836 102.198 C 134.050 102.490,134.193 102.532,134.405 102.365 C 134.560 102.241,135.719 101.744,136.979 101.260 C 138.240 100.775,140.265 99.958,141.480 99.443 L 143.690 98.508 142.835 97.008 C 140.972 93.742,139.019 91.651,136.665 90.400 C 132.344 88.104,130.038 87.598,125.313 87.910 M249.774 88.139 C 241.732 89.525,236.245 94.411,235.298 101.032 C 234.902 103.795,234.899 119.460,235.293 122.402 C 236.980 135.002,256.157 140.087,266.158 130.586 C 267.694 129.127,269.433 126.956,270.069 125.705 L 270.399 125.055 269.522 124.688 C 269.040 124.485,267.755 123.898,266.667 123.382 C 259.827 120.139,260.006 120.194,259.483 121.166 C 256.877 126.006,248.172 125.382,247.079 120.277 C 246.605 118.065,246.916 102.728,247.455 101.716 C 249.476 97.921,256.294 97.724,259.541 101.367 L 260.559 102.509 262.727 101.570 C 263.920 101.054,265.041 100.630,265.219 100.628 C 265.396 100.627,265.631 100.545,265.740 100.448 C 265.848 100.350,266.594 100.014,267.396 99.701 C 268.198 99.388,269.156 98.990,269.524 98.816 L 270.194 98.501 269.584 97.294 C 266.094 90.379,258.132 86.700,249.774 88.139 M161.612 88.234 C 154.472 89.580,148.692 94.223,147.354 99.688 C 147.014 101.078,147.072 122.802,147.419 123.992 C 150.286 133.812,164.098 138.368,176.250 133.503 C 180.426 131.831,184.067 127.745,185.127 123.542 C 185.648 121.473,185.727 103.074,185.226 100.417 C 183.623 91.917,172.504 86.181,161.612 88.234 M287.708 88.324 C 279.375 90.127,274.203 94.986,273.505 101.667 C 273.068 105.853,273.240 121.560,273.744 123.438 C 275.108 128.526,279.969 133.354,284.662 134.284 C 284.877 134.326,285.861 134.575,286.849 134.837 C 290.941 135.920,297.849 135.425,302.263 133.732 C 307.377 131.770,311.175 126.964,311.880 121.563 C 312.149 119.505,312.133 103.726,311.860 101.734 C 310.546 92.128,299.212 85.835,287.708 88.324 M318.333 111.541 L 318.333 134.792 324.271 134.792 L 330.208 134.792 330.208 127.396 L 330.208 120.000 331.128 120.000 C 332.091 120.000,332.852 120.674,333.480 122.083 C 333.607 122.370,333.956 122.885,334.254 123.229 C 334.552 123.573,335.053 124.242,335.367 124.716 C 336.216 125.999,338.527 129.091,339.494 130.236 C 339.960 130.789,340.474 131.501,340.635 131.819 C 340.950 132.437,341.727 133.549,342.381 134.319 L 342.783 134.792 350.159 134.792 L 357.535 134.792 357.153 134.289 C 355.447 132.043,352.405 128.225,351.501 127.195 C 350.894 126.503,350.197 125.586,349.952 125.156 C 349.707 124.727,349.440 124.375,349.359 124.375 C 349.277 124.375,348.664 123.648,347.996 122.760 C 347.327 121.872,346.415 120.697,345.968 120.148 C 345.521 119.599,345.191 119.126,345.234 119.096 C 345.277 119.067,346.056 118.682,346.964 118.242 C 352.447 115.583,355.143 108.626,353.826 100.530 C 353.480 98.399,352.563 95.986,351.718 94.985 C 351.484 94.707,350.769 93.856,350.130 93.094 C 349.132 91.905,348.694 91.575,347.036 90.769 C 342.700 88.660,341.705 88.529,329.010 88.399 L 318.333 88.290 318.333 111.541 M360.417 111.574 L 360.417 134.815 371.510 134.732 C 381.898 134.655,382.730 134.621,384.583 134.206 C 390.054 132.980,394.218 129.075,395.668 123.813 C 396.220 121.806,396.495 105.729,396.039 102.083 C 395.194 95.325,391.167 91.007,384.003 89.178 C 381.456 88.528,378.119 88.343,368.802 88.338 L 360.417 88.333 360.417 111.574 M191.667 111.667 L 191.667 134.792 197.708 134.792 L 203.750 134.792 203.750 125.777 L 203.750 116.763 202.935 112.288 C 202.179 108.136,202.098 107.446,202.409 107.756 C 202.597 107.944,205.756 115.260,205.897 115.833 C 205.967 116.120,206.541 117.151,207.171 118.125 C 208.643 120.400,209.312 121.556,209.494 122.138 C 209.574 122.394,209.699 122.651,209.772 122.708 C 209.990 122.879,210.505 123.742,211.572 125.729 C 213.007 128.397,213.450 129.181,215.208 132.148 L 216.771 134.785 222.865 134.789 L 228.958 134.792 228.958 111.667 L 228.958 88.542 223.014 88.542 L 217.070 88.542 217.139 99.740 C 217.208 110.872,217.211 110.954,217.765 113.854 C 218.620 118.333,218.450 118.271,216.466 113.385 C 214.864 109.442,213.869 107.209,213.534 106.809 C 213.118 106.312,212.271 104.944,211.537 103.583 C 211.123 102.816,210.046 100.862,209.142 99.242 C 208.239 97.622,207.500 96.199,207.500 96.080 C 207.500 95.961,207.378 95.739,207.230 95.588 C 207.081 95.436,206.089 93.789,205.027 91.927 L 203.094 88.542 197.380 88.542 L 191.667 88.542 191.667 111.667 M167.871 98.757 C 170.316 99.154,172.465 100.424,173.260 101.942 C 173.630 102.648,173.855 116.384,173.546 119.410 C 173.225 122.562,171.783 123.856,168.021 124.365 C 163.501 124.976,159.710 123.418,158.963 120.641 C 158.477 118.839,158.776 102.959,159.314 101.953 C 160.628 99.497,164.203 98.162,167.871 98.757 M295.987 99.170 C 297.645 99.748,299.399 101.176,299.829 102.300 C 300.260 103.423,300.391 119.229,299.982 120.702 C 298.591 125.712,286.706 125.763,285.447 120.765 C 285.138 119.535,285.117 103.566,285.424 102.462 C 286.247 99.498,291.885 97.740,295.987 99.170 M339.583 100.076 C 343.326 102.069,343.401 107.476,339.713 109.432 C 338.925 109.851,338.496 109.894,334.531 109.963 L 330.208 110.038 330.208 104.795 L 330.208 99.553 334.531 99.620 C 338.266 99.678,338.953 99.740,339.583 100.076 M381.602 100.194 C 384.249 101.446,384.435 102.296,384.336 112.655 C 384.256 120.913,384.221 121.146,382.857 122.339 C 381.279 123.720,380.703 123.854,376.354 123.854 L 372.396 123.854 372.342 111.719 L 372.288 99.583 376.300 99.583 C 380.304 99.584,380.315 99.585,381.602 100.194 " stroke="none" fill="#fbfbfb" fill-rule="evenodd"></path></g></svg>